<?xml version="1.0" encoding="UTF-8"?>
<!DOCTYPE svg PUBLIC "-//W3C//DTD SVG 1.1//EN" "http://www.w3.org/Graphics/SVG/1.1/DTD/svg11.dtd">
<!-- Creator: CorelDRAW X8 -->
<svg xmlns="http://www.w3.org/2000/svg" xml:space="preserve" width="297mm" height="210mm" version="1.1" style="shape-rendering:geometricPrecision; text-rendering:geometricPrecision; image-rendering:optimizeQuality; fill-rule:evenodd; clip-rule:evenodd"
viewBox="0 0 29700 21000"
 xmlns:xlink="http://www.w3.org/1999/xlink">
 <defs>
  <style type="text/css">
   <![CDATA[
    .fil0 {fill:#FEFEFE}
    .fil9 {fill:url(#id0)}
    .fil8 {fill:url(#id1)}
    .fil7 {fill:url(#id2)}
    .fil1 {fill:url(#id3)}
    .fil4 {fill:url(#id4)}
    .fil3 {fill:url(#id5)}
    .fil6 {fill:url(#id6)}
    .fil2 {fill:url(#id7)}
    .fil5 {fill:url(#id8)}
   ]]>
  </style>
  <linearGradient id="id0" gradientUnits="userSpaceOnUse" x1="45046.9" y1="9113.26" x2="47687.6" y2="9113.26">
   <stop offset="0" style="stop-opacity:1; stop-color:#C79738"/>
   <stop offset="0.2" style="stop-opacity:1; stop-color:#C79738"/>
   <stop offset="0.501961" style="stop-opacity:1; stop-color:#FBE03D"/>
   <stop offset="0.780392" style="stop-opacity:1; stop-color:#C79738"/>
   <stop offset="1" style="stop-opacity:1; stop-color:#C79738"/>
  </linearGradient>
  <linearGradient id="id1" gradientUnits="userSpaceOnUse" xlink:href="#id0" x1="34264.1" y1="9119.47" x2="36910.6" y2="9119.47">
  </linearGradient>
  <linearGradient id="id2" gradientUnits="userSpaceOnUse" xlink:href="#id0" x1="44349.7" y1="8092.61" x2="48998.8" y2="8092.61">
  </linearGradient>
  <linearGradient id="id3" gradientUnits="userSpaceOnUse" xlink:href="#id0" x1="38561.2" y1="9036.79" x2="40831.9" y2="9036.79">
  </linearGradient>
  <linearGradient id="id4" gradientUnits="userSpaceOnUse" xlink:href="#id0" x1="43421.6" y1="6807.1" x2="49542.2" y2="6807.1">
  </linearGradient>
  <linearGradient id="id5" gradientUnits="userSpaceOnUse" xlink:href="#id0" x1="32423.3" y1="6804.02" x2="38507.3" y2="6804.02">
  </linearGradient>
  <linearGradient id="id6" gradientUnits="userSpaceOnUse" xlink:href="#id0" x1="32973.8" y1="8099.58" x2="37649" y2="8099.58">
  </linearGradient>
  <linearGradient id="id7" gradientUnits="userSpaceOnUse" xlink:href="#id0" x1="41112.8" y1="9032.26" x2="43299.2" y2="9032.26">
  </linearGradient>
  <linearGradient id="id8" gradientUnits="userSpaceOnUse" xlink:href="#id0" x1="38129" y1="9450.52" x2="43979.4" y2="9450.52">
  </linearGradient>
 </defs>
 <g id="Layer_x0020_1">
  <metadata id="CorelCorpID_0Corel-Layer"/>
  <path class="fil0" d="M9130 10317l-731 0 365 -842 366 842zm-910 412l1089 0 326 752 583 0 -1163 -2679 -582 0 -1162 2679 583 0 326 -752zm7160 -412l-731 0 365 -842 366 842zm-910 412l1089 0 326 752 582 0 -1162 -2679 -582 0 -1163 2679 584 0 326 -752zm-1244 -1391l0 -536 -1785 0c-595,0 -893,268 -893,804l0 0c0,535 298,803 893,803l0 0 803 0c298,0 447,89 447,268l0 0c0,179 -149,268 -447,268l0 0 -1696 0 0 536 1786 0c595,0 892,-268 892,-804 0,-536 -297,-803 -892,-803l0 0 -804 0c-298,0 -446,-90 -446,-268l0 0c0,-179 148,-268 446,-268l0 0 1696 0zm6250 -536l-1785 0c-596,0 -893,268 -893,804 0,535 297,803 893,803l0 0 803 0c298,0 447,89 447,268l0 0c0,179 -149,268 -447,268l0 0 -1696 0 0 536 1785 0c596,0 893,-268 893,-804l0 0c0,-536 -297,-803 -893,-803l0 0 -803 0c-298,0 -447,-90 -447,-268l0 0c0,-179 149,-268 447,-268l0 0 1696 0 0 -536zm-9578 4096l211 0 0 -596 302 596 237 0 0 -1 302 -595 0 596 211 0 0 -1053 -215 0 -416 819 -417 -819 -215 0 0 1053zm2175 -1053l-351 0c-234,0 -351,117 -351,351l0 351c0,234 117,351 351,351l0 0 0 1 351 -1c234,-1 351,-118 351,-351l0 0 0 -351c0,-234 -117,-351 -351,-351zm-491 667l0 -281c0,-117 47,-175 140,-175l0 0 316 0c117,0 175,58 175,175l0 0 0 281c0,117 -58,175 -175,175l0 0 -281 0c-117,0 -175,-58 -175,-175zm0 0l0 0zm1052 386l702 0c234,0 351,-117 351,-351l0 0 0 -351c0,-234 -117,-351 -351,-351l0 0 -702 0 0 211 673 0c112,0 168,55 168,166l0 0 0 299c0,111 -56,166 -169,166l0 0 -672 0 0 211zm1489 0l826 0 0 -211 -826 0 0 -210 826 0 0 -211 -826 0 0 -210 826 0 0 -210 -1052 0 0 0 0 210 0 210 0 211 0 210 0 211 0 1 226 0 0 -1zm1844 0l323 0 -494 -421 65 0c234,0 351,-105 351,-316l0 0c0,-210 -117,-316 -351,-316l0 0 -701 0 0 1 -9 0 0 1053 226 0 0 -422 96 0 494 421zm-590 -842l449 0c117,0 176,35 176,105l0 0c0,70 -59,105 -176,105l0 0 -449 0 0 -210zm1046 842l210 0 0 -733 628 733 214 0 0 -1053 -211 0 0 734 -627 -734 -214 0 0 1053z"/>
  <path class="fil1" d="M40832 10339l0 -3837c-880,79 -1575,470 -2021,1229 -524,890 -510,1803 40,2677l0 0c452,719 1132,1090 1980,1163l0 0 0 -588c-484,-44 -899,-231 -1239,-576l0 0c-341,-345 -525,-762 -561,-1251l0 0 1212 0 0 1183 589 0zm-595 -3101l0 1320 -1143 0c103,-528 569,-1108 1143,-1320l0 0z"/>
  <path class="fil2" d="M41113 10337l591 0 0 -2145c183,228 356,443 531,661l0 0c169,-210 334,-417 501,-625l0 0c207,417 262,1008 41,1530l0 0c-310,734 -878,1132 -1664,1231l0 0 0 572c746,-13 1775,-491 2211,-1591l0 0c400,-1008 90,-2095 -567,-2720l0 0c-173,216 -345,431 -522,652l0 0c-373,-465 -743,-927 -1122,-1399l0 0 0 3834z"/>
  <path class="fil3" d="M32422 2082c-2,40 -3,80 -3,119l0 0c-6,469 44,932 144,1390l0 0c188,854 593,1570 1320,2082l0 0c231,163 460,330 700,481l0 0c832,524 1711,959 2609,1356l0 0c63,28 115,45 104,142l0 0c-72,594 -53,1187 62,1775l0 0c146,748 440,1423 987,1971l0 0c51,52 108,98 162,147l0 0c-1074,-1514 -1151,-3098 -362,-4750l0 0c-42,-27 -76,-48 -109,-68l0 0c-1403,-855 -2761,-1770 -3996,-2858l0 0c-601,-528 -1169,-1087 -1577,-1787l0 0c-5,-8 -17,-13 -26,-19l0 0c-6,8 -14,13 -15,19l0 0z"/>
  <path class="fil4" d="M49232 2503c-470,631 -1044,1163 -1646,1665l0 0c-1146,955 -2379,1788 -3653,2560l0 0c-36,22 -70,47 -105,70l0 0c794,1679 705,3271 -406,4775l0 0c389,-313 675,-702 878,-1152l0 0c387,-861 471,-1767 383,-2695l0 0c-12,-129 20,-185 138,-237l0 0c1031,-456 2037,-959 2968,-1599l0 0c473,-325 916,-681 1203,-1195l0 0c361,-646 504,-1349 551,-2077l0 0c11,-184 1,-370 1,-577l0 0c-112,167 -206,319 -312,462l0 0z"/>
  <path class="fil5" d="M37958 9857c221,1542 1587,2703 3197,2617l0 0c1515,-80 2795,-1303 2892,-2907l0 0c79,-1316 -924,-2843 -2019,-3040l0 0c1293,565 1891,1935 1568,3187l0 0c-310,1201 -1384,2030 -2618,2028l0 0c-1228,-3 -2291,-835 -2604,-2032l0 0c-319,-1226 269,-2649 1625,-3208l0 0c-1124,336 -2290,1618 -2041,3355l0 0z"/>
  <path class="fil6" d="M32973 5445c1,12 3,24 6,36l0 0c182,809 585,1487 1225,2017l0 0c717,593 1552,918 2462,1068l0 0c86,14 107,44 116,126l0 0c49,451 166,885 357,1297l0 0c130,282 289,546 510,802l0 0c-9,-37 -9,-49 -14,-58l0 0c-512,-859 -649,-1797 -589,-2777l0 0c17,-284 20,-282 -247,-380l0 0c-1331,-488 -2571,-1141 -3671,-2046l0 0c-47,-40 -95,-79 -147,-122 -5,22 -8,30 -8,37l0 0z"/>
  <path class="fil7" d="M48974 5426c-121,97 -240,196 -362,291l0 0c-1095,843 -2309,1463 -3609,1918l0 0c-74,26 -109,51 -100,141l0 0c113,1047 -35,2045 -553,2984l0 0c31,-39 65,-77 95,-118l0 0c426,-575 659,-1225 741,-1932l0 0c11,-93 38,-133 138,-148l0 0c621,-96 1210,-292 1759,-598l0 0c968,-538 1626,-1321 1891,-2411l0 0c10,-41 17,-83 25,-125 -13,-1 -19,-3 -22,-3l0 0c-1,0 -2,0 -3,1l0 0z"/>
  <path class="fil8" d="M34270 8188c524,737 1232,1166 2133,1262l0 0c106,12 154,47 203,139l0 0c88,167 200,321 305,485l0 0c-111,-410 -218,-805 -321,-1201l0 0c-15,-57 -29,-90 -98,-90l0 0c-367,-2 -721,-85 -1066,-200l0 0c-389,-130 -772,-277 -1162,-418 2,8 2,17 6,23l0 0z"/>
  <path class="fil9" d="M47591 8196c-688,279 -1375,564 -2133,591l0 0c-24,1 -63,36 -68,61l0 0c-89,412 -184,821 -343,1217 128,-167 240,-343 344,-525l0 0c31,-55 60,-80 125,-85l0 0c392,-25 761,-135 1109,-314l0 0c441,-228 797,-551 1063,-980l0 0c-33,12 -65,22 -97,35l0 0z"/>
 </g>
</svg>
