<svg width="42" height="45" viewBox="0 0 42 45" fill="none" xmlns="http://www.w3.org/2000/svg">
<path id="Vector" d="M1.13972 20.6225L11.6893 15.2915C12.293 14.9865 12.7111 14.3967 12.808 13.715L14.4999 1.79497C14.7438 0.0778077 16.8046 -0.608193 17.9878 0.634559L26.1996 9.2601C26.6693 9.75366 27.3465 9.97865 28.0094 9.86232L39.6047 7.82634C41.2751 7.53288 42.5489 9.32807 41.7605 10.8643L36.2862 21.5258C35.9731 22.1357 35.9731 22.8643 36.2862 23.4742L41.7605 34.1357C42.5494 35.6719 41.2751 37.4671 39.6047 37.1737L28.0094 35.1377C27.346 35.0213 26.6693 35.2463 26.1996 35.7399L17.9878 44.3654C16.8046 45.6082 14.7433 44.9222 14.4999 43.205L12.808 31.285C12.7111 30.6028 12.293 30.0135 11.6893 29.7085L1.13972 24.3775C-0.379907 23.6097 -0.379907 21.3903 1.13972 20.6225Z" fill="white" fill-opacity="0.3"/>
</svg>
